<?xml version="1.0" encoding="utf-8"?>
<!-- Generator: Adobe Illustrator 23.0.2, SVG Export Plug-In . SVG Version: 6.00 Build 0)  -->
<svg version="1.1" id="Layer_1" xmlns="http://www.w3.org/2000/svg" xmlns:xlink="http://www.w3.org/1999/xlink" x="0px" y="0px"
	 viewBox="0 0 88 88" style="enable-background:new 0 0 88 88;" xml:space="preserve">
<style type="text/css">
	.st0{fill:#3A69D3;}
</style>
<g id="Group_2097" transform="translate(-57 -587)">
	<g id="Group_889" transform="translate(-1000 -116)">
		<g id="Group_196" transform="translate(-24 -132)">
			<g id="Group_182" transform="translate(63)">
				<g id="Group_120" transform="translate(1019 836)">
					<g id="Group_119">
						<g id="Path_217">
							<path class="st0" d="M43,86.6c-11.7,0-22.5-4.5-30.7-12.7C4.1,65.7-0.5,54.7-0.5,43S4,20.5,12.2,12.3
								C20.4,4.1,31.3-0.5,43-0.5c0,0,0,0,0.1,0c11.6,0,22.4,4.5,30.6,12.7c8.3,8.2,12.7,19.1,12.8,30.7V43
								c0,11.7-4.5,22.5-12.7,30.8C65.5,82,54.7,86.6,43,86.6L43,86.6z M43,1.5L43,1.5c-11.2,0-21.6,4.4-29.4,12.2S1.4,32,1.4,43
								c0,11.2,4.4,21.6,12.2,29.4S31.9,84.6,43,84.6l0,0c11.1,0,21.6-4.4,29.4-12.2c7.9-7.9,12.1-18.3,12.1-29.4v-0.1
								c0-11.1-4.4-21.6-12.2-29.3S54.1,1.5,43,1.5z"/>
						</g>
					</g>
				</g>
			</g>
		</g>
		<g id="Group_616" transform="translate(1069 727)">
			<g id="Path_326">
				<path class="st0" d="M53.3,27.3c-0.4-0.3-1.1-0.2-1.4,0.3l0,0C45.6,37.3,34,44.8,31.5,46.4c-2.5-1.6-14.1-8.9-20.4-18.7
					c-0.3-0.5-0.9-0.6-1.4-0.3c-0.5,0.3-0.6,0.9-0.3,1.4C16.9,40.1,30.4,48,31,48.3c0.3,0.1,0.7,0.1,1,0C32.6,48,46.2,40,53.6,28.7
					C53.8,28.3,53.8,27.6,53.3,27.3L53.3,27.3z"/>
			</g>
			<g id="Path_327">
				<path class="st0" d="M61.9,23.4h-5.5c1.2-2.6,1.7-5.4,1.7-8.4c0-8.4-6.4-15.2-14.4-15.2C38.7,0,34,2.6,31.5,6.9
					C29,2.6,24.4,0,19.4-0.1c-8,0-14.5,6.8-14.5,15.2c0,2.9,0.6,5.7,1.7,8.4H1.1c-0.6,0-1,0.4-1,1c0,0.6,0.4,1,1,1h17.8
					c0.4,0,0.8-0.3,0.9-0.7l1.8-5.2l3.2,8.8c0.1,0.4,0.5,0.7,1,0.7c0.4,0,0.8-0.3,0.9-0.7l1.8-5.8l1.3,3c0.2,0.4,0.6,0.6,1,0.6
					c0.4,0,0.8-0.3,0.9-0.7l3.2-9.3L39.6,30c0.1,0.4,0.5,0.7,0.9,0.7h0.1c0.4,0,0.8-0.2,0.9-0.6l2.2-4.9H62c0.5,0,1-0.4,1-0.9v-0.1
					C62.9,23.7,62.4,23.4,61.9,23.4z M41.8,24.5l-1.3,2.6l-4-11.7c-0.3-0.8-1.1-1.3-1.8-1.3l0,0c-0.8,0-1.6,0.5-1.7,1.3l-2.3,7.1
					l-0.4-0.8c-0.3-0.7-1-1.2-1.7-1.2h-0.1c-0.8,0-1.5,0.6-1.7,1.3l-1.1,3.1l-2.1-6c-0.3-0.8-1-1.3-1.7-1.3s-1.6,0.5-1.7,1.3
					l-1.7,4.6H8.8c-1.3-2.6-1.8-5.4-1.9-8.4c0-7.4,5.6-13.3,12.5-13.3c5,0.1,9.3,3,11.3,7.6c0.1,0.4,0.5,0.6,0.9,0.6l0,0
					c0.4,0,0.8-0.2,0.9-0.6c2-4.6,6.4-7.5,11.4-7.6c6.9,0,12.4,5.9,12.4,13.3c-0.1,2.9-0.7,5.7-1.9,8.4H43.6
					C42.8,23.4,42.2,23.8,41.8,24.5z"/>
			</g>
		</g>
	</g>
</g>
</svg>
