<?xml version="1.0" encoding="utf-8"?>
<!-- Generator: Adobe Illustrator 23.0.2, SVG Export Plug-In . SVG Version: 6.00 Build 0)  -->
<svg version="1.1" id="Layer_1" xmlns="http://www.w3.org/2000/svg" xmlns:xlink="http://www.w3.org/1999/xlink" x="0px" y="0px"
	 viewBox="0 0 30 30" style="enable-background:new 0 0 30 30;" xml:space="preserve">
<style type="text/css">
	.st0{fill:#717171;}
</style>
<g>
	<path id="Path_209" class="st0" d="M1.4,10.3h5.8v18.7H1.4V10.3z M4.4,1.1c1.9,0,3.4,1.5,3.4,3.4c0,1.9-1.5,3.4-3.4,3.4
		C2.5,7.8,1,6.3,1,4.4C1,2.6,2.5,1.1,4.4,1.1"/>
	<path id="Path_210" class="st0" d="M10.9,10.3h5.5v2.5h0.1c1.1-2,3.3-3.1,5.5-3c5.9,0,6.9,3.9,6.9,8.9v10.2h-5.8v-9.1
		c0-2.2,0-5-3-5s-3.5,2.4-3.5,4.8v9.2h-5.9V10.3z"/>
</g>
</svg>
