<?xml version="1.0" encoding="utf-8"?>
<!-- Generator: Adobe Illustrator 23.0.2, SVG Export Plug-In . SVG Version: 6.00 Build 0)  -->
<svg version="1.1" id="Layer_1" xmlns="http://www.w3.org/2000/svg" xmlns:xlink="http://www.w3.org/1999/xlink" x="0px" y="0px"
	 viewBox="0 0 15.7 22.2" style="enable-background:new 0 0 15.7 22.2;" xml:space="preserve">
<style type="text/css">
	.st0{fill:#FC4C02;}
</style>
<g id="ic_room_24px">
	<path class="st0" d="M7.9,22.2l-0.4-0.4C7.2,21.5,0,13.5,0,7.9C0,3.5,3.5,0,7.8,0c0,0,0,0,0,0h0c2.1,0,4.1,0.8,5.5,2.3
		c1.5,1.5,2.3,3.5,2.3,5.5c0,5.6-7.2,13.6-7.5,14L7.9,22.2z M7.8,1C4.1,1,1,4.1,1,7.8C1,12.4,6.4,19,7.9,20.7
		c1.5-1.7,6.9-8.3,6.9-12.9c0-1.8-0.7-3.5-2-4.8C11.4,1.7,9.7,1,7.8,1L7.8,1C7.8,1,7.8,1,7.8,1z M7.9,11L7.9,11
		c-1.7,0-3.1-1.4-3.1-3.1s1.4-3.1,3.1-3.1S11,6.1,11,7.9C11,9.6,9.6,11,7.9,11z M7.9,5.7c-1.2,0-2.1,1-2.1,2.1s1,2.1,2.1,2.1
		C9,10,10,9,10,7.9C10,6.7,9,5.7,7.9,5.7z"/>
</g>
</svg>
