<?xml version="1.0" encoding="utf-8"?>
<!-- Generator: Adobe Illustrator 23.0.2, SVG Export Plug-In . SVG Version: 6.00 Build 0)  -->
<svg version="1.1" id="Layer_1" xmlns="http://www.w3.org/2000/svg" xmlns:xlink="http://www.w3.org/1999/xlink" x="0px" y="0px"
	 viewBox="0 0 20.3 30" style="enable-background:new 0 0 20.3 30;" xml:space="preserve">
<style type="text/css">
	.st0{fill:#FC4C02;}
</style>
<g id="ic_watch_24px">
	<path class="st0" d="M15.4,30H4.9l-1.2-7.2c-0.6-0.5-1.1-1-1.6-1.6c-1.7-2.1-2.4-4.8-2.1-7.5c0.3-2.6,1.6-5,3.7-6.6L4.9,0h10.5
		l1.2,7.2c2.4,1.9,3.7,4.8,3.7,7.8c0,3.1-1.3,5.9-3.7,7.8L15.4,30z M5.8,29h8.8l1.1-6.7l0.2-0.1c2.2-1.7,3.5-4.4,3.5-7.2v0
		c0-2.8-1.3-5.4-3.5-7.2l-0.2-0.1L14.6,1H5.8L4.6,7.7L4.5,7.8c-1.9,1.5-3.1,3.7-3.4,6.1c-0.3,2.4,0.4,4.8,1.9,6.7
		c0.5,0.6,1,1.1,1.5,1.5l0.2,0.1L5.8,29z M10.2,22.8c-4.3,0-7.7-3.5-7.7-7.7l0,0c0-4.3,3.5-7.8,7.8-7.8s7.8,3.5,7.8,7.8
		S14.4,22.8,10.2,22.8z M3.4,15c0,3.7,3,6.7,6.8,6.8c3.7,0,6.7-3,6.7-6.8c0-3.7-3-6.8-6.8-6.8S3.4,11.3,3.4,15L3.4,15z"/>
</g>
</svg>
