<?xml version="1.0" encoding="utf-8"?>
<!-- Generator: Adobe Illustrator 23.0.2, SVG Export Plug-In . SVG Version: 6.00 Build 0)  -->
<svg version="1.1" id="Layer_1" xmlns="http://www.w3.org/2000/svg" xmlns:xlink="http://www.w3.org/1999/xlink" x="0px" y="0px"
	 viewBox="0 0 88 88" style="enable-background:new 0 0 88 88;" xml:space="preserve">
<style type="text/css">
	.st0{fill:#3A69D3;}
	.st1{fill:#FFFFFF;}
</style>
<g id="Group_2100" transform="translate(-123.455 -631.641)">
	<g id="Group_2098" transform="translate(-473.256 -204)">
		<g id="Group_129" transform="translate(596.711 835.641)">
			<path id="Path_220" class="st0" d="M87.5,44c0,24-19.4,43.5-43.5,43.5S0.5,68.1,0.5,44S19.9,0.5,44,0.5C68,0.5,87.5,19.9,87.5,44
				C87.5,43.9,87.5,43.9,87.5,44z"/>
		</g>
	</g>
	<g id="Group_2099" transform="translate(140 652)">
		<path id="Path_318" class="st1" d="M17.2,7.3c0.5,0,1-0.4,1-0.9c0,0,0-0.1,0-0.1v-2c0-1.1,0.9-2,2-2c1.1,0,2,0.9,2,2v2
			c0,0.5,0.4,1,1,1s1-0.4,1-1v-2c0-2.2-1.8-4-4-4s-4,1.8-4,4v2C16.2,6.9,16.6,7.3,17.2,7.3z"/>
		<path id="Path_319" class="st1" d="M49.1,8.3H14.9c-1.9,0-3.7,0.9-4.9,2.5L1.5,22.7c-0.7,1-1.1,2.2-1.1,3.5v9.4c0,2.2,1.8,4,4,4H8
			c0.8,2.9,3.9,4.6,6.8,3.8c1.8-0.5,3.2-1.9,3.8-3.8h16.3c0.8,2.9,3.9,4.6,6.8,3.8c1.8-0.5,3.2-1.9,3.8-3.8h3.7c2.2,0,4-1.8,4-4
			V12.3C53.1,10.1,51.3,8.3,49.1,8.3z M13.3,41.6c-1.9,0-3.5-1.6-3.5-3.5c0-1.9,1.6-3.5,3.5-3.5s3.5,1.6,3.5,3.5
			C16.8,40,15.2,41.6,13.3,41.6z M40,41.6c-1.9,0-3.5-1.6-3.5-3.5c0-1.9,1.6-3.5,3.5-3.5c1.9,0,3.5,1.6,3.5,3.5v0.6
			C43.2,40.4,41.8,41.6,40,41.6z M51.1,35.7c0,1.1-0.9,2-2,2h-3.6c-0.3-3-3-5.2-6-4.9c-2.6,0.3-4.7,2.3-4.9,4.9H18.7
			c-0.3-3-3-5.2-6-4.9C10.1,32.9,8,35,7.8,37.6H4.4c-1.1,0-2-0.9-2-2v-9.4c0-0.8,0.3-1.6,0.7-2.3L11.6,12c0.7-1.1,2-1.7,3.3-1.7
			h34.2c1.1,0,2,0.9,2,2V35.7z"/>
		<path id="Path_320" class="st1" d="M20.2,12.3h-6.3c-0.5,0-1,0.4-1,1s0.4,1,1,1h5.3v7.3H7.9c-0.5,0-1,0.4-1,1s0.4,1,1,1h12.3
			c0.5,0,1-0.4,1-0.9c0,0,0-0.1,0-0.1v-9.2C21.2,12.7,20.7,12.3,20.2,12.3z"/>
		<path id="Path_321" class="st1" d="M36.9,20.5v-3.3c0-0.4-0.4-0.8-0.8-0.8c-0.4,0-0.8,0.4-0.8,0.8c0,0,0,0,0,0v3.3h-3.2
			c-0.4,0-0.8,0.4-0.8,0.8c0,0.4,0.4,0.8,0.8,0.8l0,0h3.2v3.1c0,0.4,0.4,0.8,0.8,0.8c0.4,0,0.8-0.4,0.8-0.8V22H40
			c0.4,0,0.8-0.4,0.8-0.8s-0.4-0.8-0.8-0.8L36.9,20.5L36.9,20.5z"/>
		<path id="Path_322" class="st1" d="M36.1,13.6c-4.3,0-7.8,3.5-7.8,7.8s3.5,7.8,7.8,7.8s7.8-3.5,7.8-7.8l0,0
			C43.8,17.1,40.4,13.6,36.1,13.6z M36.1,27.5c-3.4,0-6.1-2.8-6.2-6.2c0-3.4,2.7-6.2,6.2-6.3c3.4,0,6.2,2.8,6.2,6.3
			c0.1,3.4-2.6,6.1-6,6.2C36.2,27.5,36.1,27.5,36.1,27.5z"/>
	</g>
</g>
</svg>
