<?xml version="1.0" encoding="utf-8"?>
<!-- Generator: Adobe Illustrator 23.0.2, SVG Export Plug-In . SVG Version: 6.00 Build 0)  -->
<svg version="1.1" id="Layer_1" xmlns="http://www.w3.org/2000/svg" xmlns:xlink="http://www.w3.org/1999/xlink" x="0px" y="0px"
	 viewBox="0 0 88 88" style="enable-background:new 0 0 88 88;" xml:space="preserve">
<style type="text/css">
	.st0{fill:#3A69D3;}
</style>
<g id="Group_1474" transform="translate(-1064 -732)">
	<g id="Group_739" transform="translate(1065 733)">
		<g id="Group_196">
			<g id="Group_182">
				<g id="Group_120">
					<g id="Group_119">
						<g id="Path_217">
							<path class="st0" d="M43,86.5C19,86.5-0.5,67-0.5,43C-0.5,19,19-0.5,43-0.5c0,0,0,0,0,0c11.6,0,22.5,4.5,30.7,12.7
								c8.2,8.2,12.8,19.1,12.8,30.7V43C86.5,67,67,86.5,43,86.5z M43,1.5C43,1.5,43,1.5,43,1.5C20.1,1.5,1.5,20.1,1.5,43
								c0,22.9,18.6,41.5,41.5,41.5S84.5,65.9,84.5,43v0c0-11.1-4.3-21.5-12.2-29.4C64.5,5.8,54.1,1.5,43,1.5z"/>
						</g>
					</g>
				</g>
			</g>
		</g>
	</g>
	<g id="Group_815" transform="translate(1082.172 753.015)">
		<g id="Group_759" transform="translate(0 20.756)">
			<g id="Path_446">
				<path class="st0" d="M10.2,19.9c-5.6,0-10.1-4.5-10.1-10.1S4.6-0.4,10.2-0.4S20.4,4.1,20.4,9.7C20.4,15.3,15.9,19.8,10.2,19.9
					C10.3,19.9,10.3,19.9,10.2,19.9z M10.2,1.1C5.5,1.1,1.7,5,1.7,9.7s3.8,8.6,8.6,8.6s8.6-3.8,8.6-8.6c0,0,0,0,0,0
					C18.8,5,15,1.1,10.2,1.1C10.3,1.1,10.3,1.1,10.2,1.1L10.2,1.1z"/>
			</g>
		</g>
		<g id="Group_760" transform="translate(30.335 20.756)">
			<g id="Path_447">
				<path class="st0" d="M9.6,19.9C4,19.9-0.6,15.3-0.6,9.7S4-0.4,9.6-0.4c5.6,0,10.1,4.5,10.1,10.1C19.7,15.3,15.2,19.8,9.6,19.9
					C9.6,19.9,9.6,19.9,9.6,19.9z M9.6,1.1C4.8,1.1,1,5,1,9.7s3.8,8.6,8.6,8.6s8.6-3.8,8.6-8.6c0,0,0,0,0,0C18.2,5,14.3,1.1,9.6,1.1
					C9.6,1.1,9.6,1.1,9.6,1.1L9.6,1.1z"/>
			</g>
		</g>
		<g id="Group_761" transform="translate(32.73)">
			<g id="Path_448">
				<path class="st0" d="M3.3,7.8C1.1,7.9-0.6,6.1-0.6,4c0,0,0-0.1,0-0.1c0-2.2,1.8-3.9,4-3.8c2.1,0,3.8,1.7,3.8,3.8
					C7.2,6.1,5.5,7.8,3.3,7.8C3.3,7.8,3.3,7.8,3.3,7.8z M3.3,1.6c-1.3,0-2.3,1-2.3,2.3c0,0,0,0.1,0,0.1c0,1.3,1,2.3,2.3,2.3
					s2.3-1,2.3-2.3C5.6,2.7,4.6,1.6,3.3,1.6C3.3,1.6,3.3,1.6,3.3,1.6L3.3,1.6z"/>
			</g>
		</g>
		<g id="Group_762" transform="translate(14.439 5.312)">
			<g id="Path_449">
				<path class="st0" d="M12.2,27.5H9.1c-0.4,0-0.8-0.3-0.8-0.7c0,0,0-0.1,0-0.1v-7.5l-7.6-6.8c-1.6-1.6-0.8-3.9-0.2-4.9l0.2-0.2
					l10.9-7c0.1,0,0.1-0.1,0.2-0.1c1.6-0.6,3.4-0.2,4.7,0.9c0.1,0.1,0.2,0.2,0.2,0.2l2.9,7.3h6.6v1.6h-7c-0.3,0-0.6-0.2-0.7-0.5
					l-3-7.6c-0.8-0.6-1.9-0.9-2.9-0.5L1.9,8.5c-0.2,0.5-0.9,1.9,0,2.8l7.8,7c0.1,0.1,0.2,0.3,0.2,0.5v7h1.6v-9.1L6.2,9.2l1.2-0.9
					l5.5,7.8c0.1,0.1,0.1,0.3,0.2,0.5v10.1C13,27.2,12.6,27.5,12.2,27.5z"/>
			</g>
		</g>
		<g id="Group_763" transform="translate(26.504 10.777)">
			<g id="Path_450">
				<path class="st0" d="M7.1,8H4.8C4.6,8,4.3,7.8,4.2,7.7l-4.7-7l1.3-0.9l4.4,6.7h1.9V8z"/>
			</g>
		</g>
		<g id="Group_764" transform="translate(22.762 12.875)">
			<g id="Rectangle_1375">
				
					<rect x="-0.3" y="0.8" transform="matrix(0.8944 -0.4473 0.4473 0.8944 -0.4786 1.1838)" class="st0" width="5.2" height="1.6"/>
			</g>
		</g>
		<g id="Group_765" transform="translate(39.117 29.537)">
			<g id="Ellipse_255">
				<circle class="st0" cx="0.8" cy="0.9" r="1.6"/>
			</g>
		</g>
		<g id="Group_766" transform="translate(35.891 17.563)">
			<g id="Path_451">
				<path class="st0" d="M3.2,13.1L-0.7,0.6c-0.1-0.2,0-0.5,0.1-0.7C-0.5-0.3-0.2-0.4,0-0.4h4.7v1.6H1.1l3.7,11.5L3.2,13.1z"/>
			</g>
		</g>
		<g id="Group_767" transform="translate(10.378 30.335)">
			<g id="Rectangle_1376">
				<rect x="-0.1" y="-0.7" class="st0" width="13.3" height="1.6"/>
			</g>
		</g>
		<g id="Group_768" transform="translate(9.62 18.912)">
			<g id="Rectangle_1377">
				
					<rect x="-3.6" y="4.9" transform="matrix(0.3164 -0.9486 0.9486 0.3164 -3.6506 6.3296)" class="st0" width="12.3" height="1.6"/>
			</g>
		</g>
		<g id="Group_769" transform="translate(8.781 29.537)">
			<g id="Ellipse_256">
				<circle class="st0" cx="1.5" cy="0.9" r="1.6"/>
			</g>
		</g>
		<g id="Group_770" transform="translate(21.554 39.915)">
			<g id="Rectangle_1378">
				<rect x="-0.4" y="-0.9" class="st0" width="28.9" height="1.6"/>
			</g>
		</g>
		<g id="Group_771" transform="translate(0 39.915)">
			<g id="Rectangle_1379">
				<rect x="0.1" y="-0.9" class="st0" width="19.5" height="1.6"/>
			</g>
		</g>
	</g>
</g>
</svg>
