<?xml version="1.0" encoding="utf-8"?>
<!-- Generator: Adobe Illustrator 23.0.2, SVG Export Plug-In . SVG Version: 6.00 Build 0)  -->
<svg version="1.1" id="Layer_1" xmlns="http://www.w3.org/2000/svg" xmlns:xlink="http://www.w3.org/1999/xlink" x="0px" y="0px"
	 viewBox="0 0 51.3 51.2" style="enable-background:new 0 0 51.3 51.2;" xml:space="preserve">
<style type="text/css">
	.st0{fill:#00269A;}
</style>
<g id="Group_2095" transform="translate(-124 -3865)">
	<g id="Group_1514" transform="translate(125 3866)">
		<g id="Group_196" transform="translate(0 0)">
			<g id="Group_182">
				<g id="Group_120">
					<g id="Group_119">
						<g id="Path_217">
							<path class="st0" d="M24.7,49.9c-14,0-25.3-11.4-25.3-25.3S10.7-0.7,24.7-0.7l0,0c13.9,0,25.2,11.3,25.3,25.2l0,0
								c0,6.8-2.6,13.1-7.4,17.9S31.5,49.9,24.7,49.9L24.7,49.9z M24.7,1.3L24.7,1.3C11.8,1.3,1.4,11.8,1.4,24.6
								s10.5,23.3,23.3,23.3l0,0c6.2,0,12.1-2.4,16.5-6.8S48,30.9,48,24.6l0,0C47.9,11.7,37.5,1.3,24.7,1.3z"/>
						</g>
					</g>
				</g>
			</g>
		</g>
	</g>
	<g id="Path_966">
		<path class="st0" d="M162.8,3899.4h-26.9c-0.6,0-1-0.4-1-1v-17.6c0-0.1,0-0.1,0-0.2l0,0l0,0l0,0c0-0.1,0-0.1,0-0.2l0,0l0,0l0,0
			l0,0l0,0l0,0l0,0c0,0,0,0,0-0.1l0,0l0,0l0,0l0,0l0,0c0-0.1,0.1-0.1,0.1-0.2c0.1-0.1,0.2-0.2,0.3-0.2c0.1-0.1,0.3-0.1,0.4-0.1l0,0
			h26.9l0,0c0.1,0,0.3,0,0.4,0.1c0.1,0.1,0.2,0.1,0.3,0.2c0.1,0.1,0.1,0.1,0.2,0.2l0,0l0,0l0,0l0,0l0,0l0,0l0,0l0,0l0,0l0,0l0,0l0,0
			l0,0l0,0l0,0l0,0l0,0l0,0l0,0l0,0l0,0l0,0l0,0v0.1l0,0l0,0l0,0l0,0c0,0.1,0,0.2,0,0.2v17.6C163.8,3899,163.3,3899.4,162.8,3899.4z
			 M136.9,3897.4h24.9v-14.5l-11.8,9.7c-0.4,0.3-0.9,0.3-1.3,0l-11.8-9.7L136.9,3897.4L136.9,3897.4z M138.7,3881.8l10.6,8.7
			l10.7-8.7H138.7z"/>
	</g>
</g>
</svg>
