<?xml version="1.0" encoding="utf-8"?>
<!-- Generator: Adobe Illustrator 23.0.2, SVG Export Plug-In . SVG Version: 6.00 Build 0)  -->
<svg version="1.1" id="Layer_1" xmlns="http://www.w3.org/2000/svg" xmlns:xlink="http://www.w3.org/1999/xlink" x="0px" y="0px"
	 viewBox="0 0 16 13.5" style="enable-background:new 0 0 16 13.5;" xml:space="preserve">
<style type="text/css">
	.st0{fill:#FC4C02;}
</style>
<g id="Path_969">
	<path class="st0" d="M15.1,13.5H1c-0.5,0-1-0.4-1-1V1c0-0.1,0-0.2,0-0.2l0,0c0,0,0,0,0,0c0,0,0,0,0,0l0,0c0,0,0,0,0-0.1l0,0
		c0,0,0,0,0,0c0,0,0,0,0,0c0,0,0,0,0,0l0,0c0,0,0,0,0,0c0,0,0,0,0,0c0,0,0,0,0,0c0,0,0,0,0,0c0,0,0,0,0,0v0c0,0,0,0,0,0l0,0
		c0,0,0,0,0,0l0,0c0,0,0-0.1,0-0.1v0c0,0,0,0,0,0c0,0,0,0,0,0c0,0,0,0,0,0c0-0.1,0.1-0.1,0.1-0.2c0.1-0.1,0.2-0.2,0.3-0.2
		C0.7,0,0.8,0,0.9,0c0,0,0,0,0,0h14.1c0,0,0,0,0,0l0,0h0c0.1,0,0.3,0,0.4,0.1c0.1,0.1,0.2,0.1,0.3,0.2c0.1,0.1,0.1,0.1,0.1,0.2v0
		c0,0,0,0,0,0l0,0c0,0,0,0.1,0.1,0.1l0,0c0,0,0,0,0,0l0,0c0,0,0,0,0,0l0,0c0,0,0,0,0,0l0,0c0,0,0,0,0,0c0,0,0,0,0,0v0
		c0,0.1,0,0.2,0,0.3v11.6C16,13.1,15.6,13.5,15.1,13.5z M1.9,11.6h12.2V3L8.6,7.5c-0.4,0.3-0.9,0.3-1.2,0L1.9,3V11.6z M3.6,1.9
		L8,5.5l4.4-3.6H3.6z"/>
</g>
</svg>
