<svg xmlns="http://www.w3.org/2000/svg" width="25.397" height="34.017" viewBox="0 0 25.397 34.017">
  <g id="Group_2005" data-name="Group 2005" transform="translate(0.055 0.006)">
    <path id="Path_435" data-name="Path 435" d="M2.766,25.115,9.35,28.344a1.526,1.526,0,0,1-.317,2.849L1.942,32.966a1.527,1.527,0,0,1-1.9-1.33A12.913,12.913,0,0,1,.613,26,1.58,1.58,0,0,1,2.766,25.115Z" transform="translate(0 -9.163)" fill="#fff" fill-rule="evenodd"/>
    <path id="Path_436" data-name="Path 436" d="M8.368,43.25l4.938-5.445a1.528,1.528,0,0,1,2.659,1.076l-.253,7.344a1.589,1.589,0,0,1-1.773,1.456,13.215,13.215,0,0,1-5.255-2.153A1.477,1.477,0,0,1,8.368,43.25Z" transform="translate(-2.943 -13.686)" fill="#fff" fill-rule="evenodd"/>
    <path id="Path_437" data-name="Path 437" d="M25.85,35.154l7.028,2.279a1.5,1.5,0,0,1,.886,2.089,14.106,14.106,0,0,1-3.482,4.5A1.53,1.53,0,0,1,28,43.638L24.078,37.37A1.526,1.526,0,0,1,25.85,35.154Z" transform="translate(-8.776 -12.871)" fill="#fff" fill-rule="evenodd"/>
    <path id="Path_438" data-name="Path 438" d="M33.076,24.143l-7.091,2.026a1.494,1.494,0,0,1-1.646-2.279l4.115-6.078a1.566,1.566,0,0,1,2.279-.317,12.993,12.993,0,0,1,3.356,4.622A1.557,1.557,0,0,1,33.076,24.143Z" transform="translate(-8.848 -6.291)" fill="#fff" fill-rule="evenodd"/>
    <path id="Path_439" data-name="Path 439" d="M9.617.631A22.248,22.248,0,0,0,6.008,1.96a1.517,1.517,0,0,0-.633,2.153l6.9,11.966a1.527,1.527,0,0,0,2.849-.76V1.517A1.531,1.531,0,0,0,13.479,0,25.863,25.863,0,0,0,9.617.631Z" transform="translate(-1.913 0)" fill="#fff" fill-rule="evenodd"/>
  </g>
</svg>
