<?xml version="1.0" encoding="utf-8"?>
<!-- Generator: Adobe Illustrator 23.0.2, SVG Export Plug-In . SVG Version: 6.00 Build 0)  -->
<svg version="1.1" id="Layer_1" xmlns="http://www.w3.org/2000/svg" xmlns:xlink="http://www.w3.org/1999/xlink" x="0px" y="0px"
	 viewBox="0 0 30 30" style="enable-background:new 0 0 30 30;" xml:space="preserve">
<style type="text/css">
	.st0{fill:#717171;}
</style>
<path id="Exclusion_1" class="st0" d="M15,24.9c-0.1,0-8.8,0-10.9-0.6c-1.2-0.3-2.2-1.3-2.5-2.5C1,19.6,1,15,1,15s0-4.6,0.6-6.8
	C1.9,7,2.8,6,4,5.7c2.2-0.6,10.9-0.6,11-0.6s8.8,0,10.9,0.6c1.2,0.3,2.2,1.3,2.5,2.5C29,10.4,29,15,29,15s0,4.6-0.6,6.8
	c-0.3,1.2-1.3,2.2-2.5,2.5C23.8,24.9,15.1,24.9,15,24.9z M12.1,10.8L12.1,10.8v8.3l7.3-4.2L12.1,10.8z"/>
</svg>
