<svg xmlns="http://www.w3.org/2000/svg" width="535.087" height="552.207" viewBox="0 0 535.087 552.207">
  <g id="Group_1510" data-name="Group 1510" transform="translate(-0.007)" opacity="0.04">
    <path id="Path_424" data-name="Path 424" d="M349.433,489.354,139.325,0H82.757L207.565,317.856l9.877,24.243H64.8c-14.366,16.162-29.631,31.426-43.1,46.691H237.2l7.183,16.162L277.6,492.946l7.183,22.447c8.081-1.8,22.448-2.694,40.405-2.694,8.081,0,19.754.9,36.814,2.694Z" transform="translate(173.09)" fill="#908f8f"/>
    <path id="Path_421" data-name="Path 421" d="M11.619,421.718s-36.814-67.342,20.652-134.685S247.766,46.4,247.766,2.4c0,0,15.264,54.772-56.568,156.234C110.388,269.974.845,358.865,11.619,421.718Z" transform="translate(0 19.15)" fill="#908f8f"/>
    <path id="Path_422" data-name="Path 422" d="M43.287,430.916s-78.117-56.568-17.06-132.889S233.641,53.8,240.824,10.7c0,0,25.141,77.219-79.015,185.865C69.326,305.21,12.758,349.207,43.287,430.916Z" transform="translate(23.104 85.375)" fill="#908f8f"/>
    <path id="Path_423" data-name="Path 423" d="M55.682,392.628s-85.3-43.1-26.937-131.991C96.088,179.826,203.835,68.486,202.039,20c0,0,37.712,56.568-41.3,143.664C82.619,250.76-1.783,312.715,55.682,392.628Z" transform="translate(66.379 159.58)" fill="#908f8f"/>
  </g>
</svg>
