<svg xmlns="http://www.w3.org/2000/svg" xmlns:xlink="http://www.w3.org/1999/xlink" width="65.893" height="58.672" viewBox="0 0 65.893 58.672">
  <defs>
    <clipPath id="clip-path">
      <rect id="Rectangle_1357" data-name="Rectangle 1357" width="65.893" height="58.672" transform="translate(152 4454)" fill="none" stroke="#707070" stroke-width="1"/>
    </clipPath>
  </defs>
  <g id="Symbol_401_2" data-name="Symbol 401 – 2" transform="translate(-165.107 -4404)">
    <g id="Mask_Group_7" data-name="Mask Group 7" transform="translate(13.107 -50)" clip-path="url(#clip-path)">
      <g id="Group_682" data-name="Group 682" transform="translate(166.443 4454)">
        <g id="Group_671" data-name="Group 671" transform="translate(0 1.431)">
          <path id="Path_361" data-name="Path 361" d="M1.035,41.317A10.805,10.805,0,0,1,2.863,29.4c5.087-5.961,19.075-21.3,19.075-25.2,0,0,1.351,4.848-5.007,13.83C9.777,27.965.081,35.833,1.035,41.317Z" transform="translate(-0.007 -2.292)" fill="#ff4d00"/>
          <path id="Path_362" data-name="Path 362" d="M6.477,49.7s-6.915-5.007-1.51-11.763,18.36-21.619,19-25.434c0,0,2.225,6.835-6.994,16.452C8.782,38.649,3.775,42.543,6.477,49.7Z" transform="translate(-0.601 -3.996)" fill="#00269a"/>
          <path id="Path_363" data-name="Path 363" d="M12.518,54.784S4.967,50.969,10.133,43.1c5.961-7.153,15.5-17.009,15.34-21.3,0,0,3.338,5.007-3.656,12.717C14.9,42.226,7.431,47.711,12.518,54.784Z" transform="translate(-1.714 -5.904)" fill="#ff4d00"/>
          <path id="Path_364" data-name="Path 364" d="M50.71,45.117,32.112,1.8H27.1L38.152,29.936l.874,2.146H25.515c-1.272,1.431-2.623,2.782-3.815,4.133H40.775l.636,1.431,2.941,7.789.636,1.987a19.16,19.16,0,0,1,3.577-.238c.715,0,1.749.079,3.259.238Z" transform="translate(-4.458 -1.8)" fill="#00269a"/>
        </g>
        <g id="Group_672" data-name="Group 672" transform="translate(52.452)">
          <path id="Path_365" data-name="Path 365" d="M75.22,1.8C76.173,4.025,77.048,6.251,78,8.476l1.192,2.861,1.351,3.179,1.351,3.1,1.272,2.861.079.159V20.8a6.063,6.063,0,0,0-1.351-.079,6.451,6.451,0,0,0-1.351.079c-.874-2.464-1.828-4.928-2.861-7.312H70.61a50.678,50.678,0,0,0-2.7,7.312,4.2,4.2,0,0,0-.954-.079A4.561,4.561,0,0,0,66,20.8v-.159c1.431-2.941,2.782-5.882,4.053-8.9C71.564,8.476,73.233,5.059,74.5,1.8ZM71.246,12.371h5.961l-3.02-6.994Z" transform="translate(-66 -0.369)" fill="#00269a"/>
          <path id="Path_366" data-name="Path 366" d="M100.153,17.883c-1.272,1.749-2.225,2.861-4.53,2.861-3.577,0-5.723-2.464-5.723-6.676,0-4.053,2.384-6.835,5.961-6.835a4.633,4.633,0,0,1,4.292,2.7V7.392c0-2.464-.079-4.928-.079-7.392a6.425,6.425,0,0,0,1.192.079A6.043,6.043,0,0,0,102.378,0c-.079,1.033-.079,1.192-.159,3.338l-.079,3.338-.079,3.5v3.815c0,2.066,0,4.053.079,6.12v.477a4.889,4.889,0,0,0-1.033-.079,6.18,6.18,0,0,0-1.033.079ZM96.1,19.791c2.464,0,4.053-2.384,4.053-6.12,0-3.179-1.51-5.325-3.736-5.325-2.7,0-4.133,1.987-4.133,5.643C92.284,16.532,92.92,19.791,96.1,19.791Z" transform="translate(-70.904)" fill="#00269a"/>
          <path id="Path_367" data-name="Path 367" d="M114.956,19.732c1.113-2.941,3.5-7.392,3.974-10.332.318,0,.556.079.874.079.238,0,.556-.079.795-.079a.246.246,0,0,0-.079.159c-.159.4-.556,1.192-1.113,2.384L118.135,14.8a78.659,78.659,0,0,0-3.02,7.551,2.2,2.2,0,0,0-.715-.079,2.237,2.237,0,0,0-.874.079c-.636-1.59-1.192-3.179-1.828-4.769L110.5,14.646l-1.113-2.623c-.636-1.431-1.033-2.225-1.113-2.384a.278.278,0,0,1-.079-.159c.477,0,.874.079,1.272.079s.795-.079,1.272-.079c0,.079,0,.159.079.159a84.7,84.7,0,0,0,4.053,10.173h.079Z" transform="translate(-74.659 -1.929)" fill="#00269a"/>
          <path id="Path_368" data-name="Path 368" d="M136.507,21.222a8.523,8.523,0,0,1-4.689,1.59c-4.133,0-6.517-2.543-6.517-6.835,0-4.053,2.464-6.676,6.358-6.676,3.577,0,5.564,2.146,5.564,5.8V15.9c-1.033-.079-2.066-.079-4.53-.079-1.51,0-2.861,0-4.61.079h-.4v.4c0,3.418,1.749,5.4,4.689,5.4a5.513,5.513,0,0,0,4.212-1.908l.159.079Zm-4.928-11.048c-2.225,0-3.736,1.828-3.895,4.689,1.192.079,2.464,0,3.656.079,1.113,0,2.225,0,3.338-.079H135C134.838,12.638,134.281,10.174,131.579,10.174Z" transform="translate(-78.168 -1.908)" fill="#00269a"/>
          <path id="Path_369" data-name="Path 369" d="M145.431,9.538a3.869,3.869,0,0,0,.954-.079c0,.715-.079,1.431-.079,2.066v.4A4.863,4.863,0,0,1,150.756,9.3c2.861,0,4.451,1.669,4.451,4.61,0,1.59-.079,3.1-.079,4.689v3.815a6.425,6.425,0,0,0-1.192-.079,7.859,7.859,0,0,0-1.192.079c.159-1.51.238-4.61.238-6.994,0-2.225-.238-4.769-3.179-4.769-3.259,0-3.577,2.543-3.577,5.166v3.736c0,.954.079,1.908.079,2.861a5.247,5.247,0,0,0-1.113-.079,6.425,6.425,0,0,0-1.192.079A21.883,21.883,0,0,0,144.159,19c.079-1.431.079-3.338.079-5.166,0-1.51,0-2.941-.079-4.451A10.885,10.885,0,0,0,145.431,9.538Z" transform="translate(-82.006 -1.908)" fill="#00269a"/>
          <path id="Path_370" data-name="Path 370" d="M165.953,4.9v.238c0,1.192-.238,2.464-.238,3.656l3.02-.079a1.987,1.987,0,0,0,0,1.113h-2.941c0,.715,0,.795-.079,2.3v4.61c0,3.179.477,4.133,2.066,4.133a2.569,2.569,0,0,0,1.272-.238v.636a7.879,7.879,0,0,1-2.3.477c-1.987,0-3.179-1.272-3.179-3.5,0-2.384.159-4.769.159-7.074a6.063,6.063,0,0,0-.079-1.351,12.877,12.877,0,0,0-1.749.079,1.353,1.353,0,0,0,.079-.556,1.353,1.353,0,0,0-.079-.556h1.828V8.636c0-.954-.079-1.908-.159-2.861Z" transform="translate(-85.679 -1.005)" fill="#00269a"/>
          <path id="Path_371" data-name="Path 371" d="M176.061,3.231A1.431,1.431,0,1,1,174.631,1.8,1.478,1.478,0,0,1,176.061,3.231Zm-.4,14.227c0,1.828,0,2.225.079,3.338a6.864,6.864,0,0,0-1.192-.079,6.016,6.016,0,0,0-1.192.079,15.663,15.663,0,0,0,.159-3.338l.079-3.1v-3.1a17.5,17.5,0,0,0-.159-3.418,6.425,6.425,0,0,0,1.192.079,12.129,12.129,0,0,0,1.431-.079,20.4,20.4,0,0,0-.159,3.5C175.743,14.119,175.664,15.153,175.664,17.458Z" transform="translate(-87.997 -0.369)" fill="#00269a"/>
          <path id="Path_372" data-name="Path 372" d="M187.535,11.623a2.578,2.578,0,0,0-2.543-1.749,2.257,2.257,0,0,0-2.3,2.3c0,3.736,6.517,1.51,6.517,5.882,0,2.7-2.066,4.53-5.087,4.53a6.863,6.863,0,0,1-3.418-.954,8.685,8.685,0,0,0,.556-1.987h.238a3.583,3.583,0,0,0,3.179,1.908,2.491,2.491,0,0,0,2.7-2.464c0-3.5-6.517-1.351-6.517-6.279,0-2.225,1.908-3.815,4.53-3.815a6.379,6.379,0,0,1,3.1.715,5.409,5.409,0,0,0-.636,1.908h-.318Z" transform="translate(-89.536 -1.847)" fill="#00269a"/>
          <path id="Path_373" data-name="Path 373" d="M197.753,4.9v.238c0,1.192-.238,2.464-.238,3.656l3.02-.079a1.987,1.987,0,0,0,0,1.113h-2.941c0,.715,0,.795-.079,2.3v4.61c0,3.179.477,4.133,2.066,4.133a2.569,2.569,0,0,0,1.272-.238v.636a7.879,7.879,0,0,1-2.3.477c-1.987,0-3.179-1.272-3.179-3.5,0-2.384.159-4.769.159-7.074a6.063,6.063,0,0,0-.079-1.351,12.877,12.877,0,0,0-1.749.079,1.352,1.352,0,0,0,.079-.556,1.352,1.352,0,0,0-.079-.556h1.828V8.636c0-.954-.079-1.908-.159-2.861Z" transform="translate(-92.204 -1.005)" fill="#00269a"/>
        </g>
        <g id="Group_674" data-name="Group 674" transform="translate(52.69 26.228)">
          <g id="Group_673" data-name="Group 673">
            <path id="Path_374" data-name="Path 374" d="M66.777,35.479h.874a8.238,8.238,0,0,0,1.59-.079,64.569,64.569,0,0,0-.318,6.756A6.838,6.838,0,0,0,69,43.427a16.142,16.142,0,0,0,2.3.079H77.03c1.59,0,2.3,0,3.338-.079v-3.02c0-1.669,0-3.338-.159-4.928a5.63,5.63,0,0,0,1.192.079,10.134,10.134,0,0,0,1.51-.079v.4l-.159,3.179-.079,3.1c-.079,1.987-.079,3.895-.079,5.8l.079,3.1a31.492,31.492,0,0,0,.159,3.259,4.888,4.888,0,0,0-1.113-.079,12.306,12.306,0,0,0-1.669.079V54l.159-2.782.079-3.1V44.779c-.954,0-1.908-.079-2.861-.079H68.843v6.517A23.732,23.732,0,0,0,69,54.157a8.237,8.237,0,0,0-1.272-.079c-.477,0-.954.079-1.431.079.318-3.974.318-7.948.318-11.922,0-2.225-.079-5.325-.238-6.835C66.618,35.4,66.7,35.4,66.777,35.479Z" transform="translate(-66.3 -33.492)" fill="#00269a"/>
            <path id="Path_375" data-name="Path 375" d="M102.907,54.322a8.523,8.523,0,0,1-4.689,1.59c-4.133,0-6.517-2.543-6.517-6.835,0-4.053,2.464-6.676,6.358-6.676,3.577,0,5.564,2.146,5.564,5.8V49c-1.033-.079-2.066-.079-4.53-.079-1.51,0-2.861,0-4.61.079h-.4v.4c0,3.418,1.749,5.4,4.689,5.4a5.513,5.513,0,0,0,4.212-1.908l.159.079ZM97.979,43.354c-2.225,0-3.736,1.828-3.895,4.689,1.192.079,2.464,0,3.656.079,1.113,0,2.225,0,3.338-.079h.318C101.238,45.818,100.761,43.354,97.979,43.354Z" transform="translate(-71.512 -34.929)" fill="#00269a"/>
            <path id="Path_376" data-name="Path 376" d="M110.972,43.81a8.054,8.054,0,0,1,4.371-1.51c2.861,0,4.53,1.59,4.53,4.292,0,1.51-.159,3.1-.159,4.61,0,3.1.159,3.418,1.113,3.418a1.79,1.79,0,0,0,.556-.079V55.1a3.918,3.918,0,0,1-1.749.4,1.764,1.764,0,0,1-1.987-1.669,5.666,5.666,0,0,1-4.053,1.987c-2.464,0-3.895-1.192-3.895-3.338,0-4.689,5.4-3.1,7.948-4.928a3.291,3.291,0,0,0,.079-.795c0-2.066-1.192-3.338-3.1-3.338A3.673,3.673,0,0,0,111.21,45.4h-.238Zm4.848,5.325c-3.179.715-3.815,1.192-3.815,2.941a2.382,2.382,0,0,0,2.464,2.623,3.976,3.976,0,0,0,3.259-1.908c0-1.351.079-2.7.079-4.053A14.643,14.643,0,0,0,115.82,49.135Z" transform="translate(-75.206 -34.908)" fill="#00269a"/>
            <path id="Path_377" data-name="Path 377" d="M129.884,36.259,129.8,39.6c0,1.351-.079,2.623-.079,3.736,0,.4,0,1.51.079,3.418v3.418c0,1.749.079,2.146.159,3.418a9.38,9.38,0,0,0-1.272-.079,6.864,6.864,0,0,0-1.192.079c.159-2.225.238-4.53.238-6.835V36.1c0-1.272-.079-2.225-.079-2.782V33a5.263,5.263,0,0,0,1.192.079A5.629,5.629,0,0,0,130.043,33C129.964,34.192,129.964,34.51,129.884,36.259Z" transform="translate(-78.858 -33)" fill="#00269a"/>
            <path id="Path_378" data-name="Path 378" d="M138.353,38.1v.238c0,1.192-.238,2.464-.238,3.656l3.02-.079a1.987,1.987,0,0,0,0,1.113h-2.941c0,.715,0,.795-.079,2.3v4.61c0,3.179.477,4.133,2.066,4.133a2.569,2.569,0,0,0,1.272-.238v.636a7.879,7.879,0,0,1-2.3.477c-1.987,0-3.179-1.272-3.179-3.5,0-2.384.159-4.769.159-7.074a6.064,6.064,0,0,0-.079-1.351,12.877,12.877,0,0,0-1.749.079,1.987,1.987,0,0,0,0-1.113h1.828v-.159c0-.954-.079-1.908-.159-2.861Z" transform="translate(-80.254 -34.047)" fill="#00269a"/>
            <path id="Path_379" data-name="Path 379" d="M148.184,43.115a4.664,4.664,0,0,1,4.292-2.623c2.861,0,4.53,1.749,4.53,4.61,0,2.066-.079,4.053-.079,6.12,0,.795,0,1.59.079,2.384a4.888,4.888,0,0,0-1.113-.079,6.032,6.032,0,0,0-1.272.079c.159-1.51.238-4.212.238-6.2,0-2.3-.079-3.02-.4-3.815a3.048,3.048,0,0,0-2.861-1.749,3.475,3.475,0,0,0-3.02,1.749c-.477.874-.556,1.669-.556,3.895v3.179c0,1.431,0,1.828.079,2.941a6.043,6.043,0,0,0-1.113-.079c-.4,0-.795.079-1.192.079.159-1.51.159-3.577.238-6.517V36.518a18.9,18.9,0,0,0-.159-3.418,6.016,6.016,0,0,0,1.192.079,5.63,5.63,0,0,0,1.192-.079,24.452,24.452,0,0,0-.159,2.623c-.079,2.3-.079,4.689-.079,7.074v.238Z" transform="translate(-82.613 -33.021)" fill="#00269a"/>
            <path id="Path_380" data-name="Path 380" d="M180.176,52.7a10.951,10.951,0,0,1-5.961,1.669c-6.2,0-10.014-3.656-10.014-9.617,0-6.12,4.053-9.856,10.65-9.856a14.406,14.406,0,0,1,5.723,1.113,10.671,10.671,0,0,0-.556,2.146l-.159.079a7.084,7.084,0,0,0-5.007-2.225c-4.848,0-7.789,3.259-7.789,8.743,0,5.166,2.861,8.5,7.312,8.5a9.008,9.008,0,0,0,6.04-2.3l.159.079Z" transform="translate(-86.389 -33.39)" fill="#00269a"/>
            <path id="Path_381" data-name="Path 381" d="M189.072,43.81a8.054,8.054,0,0,1,4.371-1.51c2.861,0,4.53,1.59,4.53,4.292,0,1.51-.159,3.1-.159,4.61,0,3.1.159,3.418,1.113,3.418a1.79,1.79,0,0,0,.556-.079V55.1a3.918,3.918,0,0,1-1.749.4,1.764,1.764,0,0,1-1.987-1.669,5.666,5.666,0,0,1-4.053,1.987c-2.464,0-3.895-1.192-3.895-3.338,0-4.689,5.4-3.1,7.948-4.928a3.294,3.294,0,0,0,.079-.795c0-2.066-1.192-3.338-3.1-3.338A3.673,3.673,0,0,0,189.31,45.4h-.238Zm4.848,5.325c-3.179.715-3.815,1.192-3.815,2.941a2.382,2.382,0,0,0,2.464,2.623,3.976,3.976,0,0,0,3.259-1.908c0-1.351.079-2.7.079-4.053A14.643,14.643,0,0,0,193.92,49.135Z" transform="translate(-91.232 -34.908)" fill="#00269a"/>
            <path id="Path_382" data-name="Path 382" d="M211.681,42.4a1.433,1.433,0,0,1,.795.159,5.936,5.936,0,0,0-.238,1.59v.477l-.159.159a2.158,2.158,0,0,0-1.351-.477c-1.828,0-2.782,1.431-2.782,4.371v2.464c0,1.431.079,2.861.079,4.371a4.2,4.2,0,0,0-.954-.079,8.781,8.781,0,0,0-1.272.079v-.238l.079-3.02V45.738l-.079-2.861v-.318a5.247,5.247,0,0,0,1.113.079,4.223,4.223,0,0,0,1.113-.079c0,.715-.079,1.51-.079,2.225v.477C209.059,44.069,209.853,42.4,211.681,42.4Z" transform="translate(-94.925 -34.929)" fill="#00269a"/>
            <path id="Path_383" data-name="Path 383" d="M227.307,54.322a8.523,8.523,0,0,1-4.689,1.59c-4.133,0-6.517-2.543-6.517-6.835,0-4.053,2.464-6.676,6.358-6.676,3.577,0,5.564,2.146,5.564,5.8V49c-1.033-.079-2.067-.079-4.53-.079-1.51,0-2.861,0-4.61.079h-.4v.4c0,3.418,1.749,5.4,4.689,5.4a5.513,5.513,0,0,0,4.212-1.908l.159.079Zm-4.928-10.968c-2.225,0-3.736,1.828-3.895,4.689,1.192.079,2.464,0,3.656.079,1.113,0,2.225,0,3.338-.079h.318C225.638,45.818,225.081,43.354,222.379,43.354Z" transform="translate(-97.039 -34.929)" fill="#00269a"/>
          </g>
        </g>
      </g>
    </g>
  </g>
</svg>
