<?xml version="1.0" encoding="utf-8"?>
<!-- Generator: Adobe Illustrator 23.0.2, SVG Export Plug-In . SVG Version: 6.00 Build 0)  -->
<svg version="1.1" id="Layer_1" xmlns="http://www.w3.org/2000/svg" xmlns:xlink="http://www.w3.org/1999/xlink" x="0px" y="0px"
	 viewBox="0 0 88 88" style="enable-background:new 0 0 88 88;" xml:space="preserve">
<style type="text/css">
	.st0{fill:#3A69D3;}
</style>
<g id="Group_2098" transform="translate(-57.486 -379.641)">
	<g id="Group_883" transform="translate(-376.969 -324)">
		<g id="Group_178" transform="translate(-161.256 -131)">
			<g id="Group_129" transform="translate(596.711 835.641)">
				<g id="Path_220">
					<path class="st0" d="M43,86.5c-24,0-43.5-19.4-43.5-43.5S19-0.5,43-0.5c0,0,0,0,0.1,0c11.6,0,22.4,4.5,30.7,12.7
						C82,20.4,86.5,31.4,86.5,43V43c0,11.7-4.5,22.6-12.7,30.8S54.7,86.5,43,86.5L43,86.5z M43,1.4L43,1.4C20.1,1.4,1.5,20.1,1.5,43
						S20.1,84.6,43,84.6l0,0C66,84.6,84.6,65.9,84.5,43v-0.1c0-11.1-4.4-21.5-12.2-29.4C64.5,5.7,54.1,1.4,43,1.4z"/>
				</g>
			</g>
		</g>
		<g id="Group_611" transform="translate(452 725)">
			<g id="Path_318">
				<path class="st0" d="M16.5,6.7c0.5,0,1-0.4,1-0.9V5.7V3.8c0-1.1,0.9-1.9,1.9-1.9s1.9,0.9,1.9,1.9v1.9c0,0.6,0.4,1,1,1
					c0.6,0,1-0.4,1-1V3.8c0-2.1-1.7-3.9-3.9-3.9s-3.9,1.7-3.9,3.9v1.9C15.5,6.3,15.9,6.7,16.5,6.7z"/>
			</g>
			<g id="Path_319">
				<path class="st0" d="M47.6,7.7H14.2c-1.8,0-3.7,0.9-4.8,2.4L1.1,21.8C0.4,22.7,0,24,0,25.2v9.2c0,2.1,1.7,3.9,3.9,3.9h3.6
					c0.8,2.8,3.8,4.5,6.6,3.7c1.7-0.5,3.2-1.9,3.7-3.7h15.9c0.8,2.8,3.8,4.5,6.6,3.7c1.7-0.5,3.2-1.9,3.7-3.7h3.6
					c2.1,0,3.9-1.7,3.9-3.9V11.6C51.5,9.4,49.8,7.7,47.6,7.7z M12.7,40.2c-1.8,0-3.4-1.6-3.4-3.4s1.6-3.4,3.4-3.4s3.4,1.6,3.4,3.4
					S14.5,40.2,12.7,40.2z M38.8,40.2c-1.8,0-3.4-1.6-3.4-3.4s1.6-3.4,3.4-3.4s3.4,1.6,3.4,3.4v0.6C41.9,39.1,40.4,40.2,38.8,40.2z
					 M49.6,34.4c0,1.1-0.9,1.9-1.9,1.9h-3.5c-0.3-2.9-2.9-5.2-5.8-4.9c-2.5,0.3-4.6,2.2-4.9,4.9H17.9c-0.3-2.9-2.9-5.2-5.8-4.9
					c-2.5,0.3-4.6,2.2-4.9,4.9H3.9c-1.1,0-1.9-0.9-1.9-1.9v-9.2c0-0.8,0.3-1.6,0.7-2.2L11,11.3c0.7-1.1,1.9-1.7,3.2-1.7h33.4
					c1.1,0,1.9,0.9,1.9,1.9V34.4z"/>
			</g>
			<g id="Path_320">
				<path class="st0" d="M19.4,11.6h-6.1c-0.6,0-1,0.4-1,1s0.4,1,1,1h5.1v7.1h-11c-0.6,0-1,0.4-1,1s0.4,1,1,1h12c0.5,0,1-0.4,1-0.9
					v-0.1v-9C20.4,12,19.9,11.6,19.4,11.6z"/>
			</g>
			<g id="Path_321">
				<path class="st0" d="M35.7,19.6v-3.2c0-0.4-0.4-0.8-0.8-0.8c-0.4,0-0.8,0.4-0.8,0.8l0,0v3.2H31c-0.4,0-0.8,0.4-0.8,0.8
					s0.4,0.8,0.8,0.8l0,0h3.1v3c0,0.4,0.4,0.8,0.8,0.8s0.8-0.4,0.8-0.8v-3.1h3.1c0.4,0,0.8-0.4,0.8-0.8s-0.4-0.8-0.8-0.8L35.7,19.6
					L35.7,19.6z"/>
			</g>
			<g id="Path_322">
				<path class="st0" d="M34.9,12.8c-4.2,0-7.6,3.4-7.6,7.6s3.4,7.6,7.6,7.6s7.6-3.4,7.6-7.6l0,0C42.5,16.2,39.1,12.8,34.9,12.8z
					 M34.9,26.4c-3.3,0-6-2.7-6-6c0-3.3,2.7-6,6-6.1c3.4,0,6,2.7,6,6.1c0.1,3.3-2.5,5.9-5.8,6C35,26.4,35,26.4,34.9,26.4z"/>
			</g>
		</g>
	</g>
</g>
</svg>
