<?xml version="1.0" encoding="utf-8"?>
<!-- Generator: Adobe Illustrator 23.0.2, SVG Export Plug-In . SVG Version: 6.00 Build 0)  -->
<svg version="1.1" id="Layer_1" xmlns="http://www.w3.org/2000/svg" xmlns:xlink="http://www.w3.org/1999/xlink" x="0px" y="0px"
	 viewBox="0 0 88 88" style="enable-background:new 0 0 88 88;" xml:space="preserve">
<style type="text/css">
	.st0{fill:#3A69D3;}
	.st1{fill:#FFFFFF;}
</style>
<g id="Group_2095" transform="translate(-1068 -619)">
	<g id="Group_1474" transform="translate(3 -114)">
		<g id="Group_739" transform="translate(7 29)">
			<g id="Group_196" transform="translate(-24 -132)">
				<g id="Group_182" transform="translate(63)">
					<g id="Group_120" transform="translate(1019 836)">
						<g id="Group_119">
							<path id="Path_217" class="st0" d="M87.5,44c0,24-19.4,43.5-43.5,43.5C20,87.5,0.5,68.1,0.5,44C0.5,20,19.9,0.5,44,0.5
								c0,0,0,0,0,0C68,0.5,87.5,19.9,87.5,44C87.5,43.9,87.5,43.9,87.5,44z"/>
						</g>
					</g>
				</g>
			</g>
		</g>
		<g id="Group_815" transform="translate(1082.454 753.244)">
			<g id="Group_759" transform="translate(0 20.756)">
				<path id="Path_446" class="st1" d="M10.7,20.8C5,20.8,0.4,16.2,0.4,10.5S5,0.2,10.7,0.2S21,4.8,21,10.5
					C21,16.2,16.4,20.8,10.7,20.8C10.7,20.8,10.7,20.8,10.7,20.8z M10.7,1.8C5.9,1.8,2,5.7,2,10.5c0,4.8,3.9,8.7,8.7,8.7
					s8.7-3.9,8.7-8.7c0,0,0,0,0,0C19.4,5.7,15.5,1.8,10.7,1.8C10.7,1.8,10.7,1.8,10.7,1.8L10.7,1.8z"/>
			</g>
			<g id="Group_760" transform="translate(30.335 20.756)">
				<path id="Path_447" class="st1" d="M10.5,20.8c-5.7,0-10.3-4.6-10.3-10.3S4.8,0.2,10.5,0.2s10.3,4.6,10.3,10.3
					C20.8,16.2,16.2,20.8,10.5,20.8C10.5,20.8,10.5,20.8,10.5,20.8z M10.5,1.8c-4.8,0-8.7,3.9-8.7,8.7c0,4.8,3.9,8.7,8.7,8.7
					s8.7-3.9,8.7-8.7c0,0,0,0,0,0C19.2,5.7,15.3,1.8,10.5,1.8C10.5,1.8,10.5,1.8,10.5,1.8L10.5,1.8z"/>
			</g>
			<g id="Group_761" transform="translate(32.73)">
				<path id="Path_448" class="st1" d="M4.1,8.3c-2.2,0-3.9-1.7-4-3.9c0,0,0-0.1,0-0.1c0-2.2,1.8-3.9,4-3.9c2.1,0,3.9,1.8,3.9,3.9
					C8.1,6.5,6.4,8.3,4.1,8.3C4.2,8.3,4.2,8.3,4.1,8.3z M4.1,1.9c-1.3,0-2.4,1-2.4,2.3c0,0,0,0.1,0,0.1c0,1.3,1.1,2.4,2.4,2.4
					s2.4-1.1,2.4-2.4C6.5,3,5.5,2,4.1,1.9C4.2,1.9,4.2,1.9,4.1,1.9L4.1,1.9z"/>
			</g>
			<g id="Group_762" transform="translate(14.439 5.312)">
				<path id="Path_449" class="st1" d="M12.9,28.3H9.7c-0.4,0-0.8-0.3-0.8-0.7c0,0,0-0.1,0-0.1v-7.6L1.3,13c-1.7-1.7-0.8-4-0.2-5
					l0.2-0.2l11.1-7.1c0.1,0,0.1-0.1,0.2-0.1c1.6-0.6,3.5-0.2,4.8,1c0.1,0.1,0.2,0.2,0.2,0.2l2.9,7.4h6.7v1.6H20
					c-0.3,0-0.6-0.2-0.7-0.5l-3.1-7.8c-0.8-0.7-1.9-0.9-2.9-0.6L2.4,9c-0.2,0.5-1,1.9,0,2.9l7.9,7.1c0.1,0.2,0.2,0.3,0.2,0.6v7.1
					h1.6v-9.2L6.8,9.8l1.3-0.9l5.5,7.9c0.1,0.1,0.1,0.3,0.2,0.5v10.3C13.7,28.1,13.3,28.4,12.9,28.3z"/>
			</g>
			<g id="Group_763" transform="translate(26.504 10.777)">
				<path id="Path_450" class="st1" d="M8,8.6H5.6C5.4,8.6,5.1,8.5,5,8.3L0.2,1.2l1.3-0.9l4.5,6.8H8V8.6z"/>
			</g>
			<g id="Group_764" transform="translate(22.762 12.875)">
				
					<rect id="Rectangle_1375" x="0.3" y="1.4" transform="matrix(0.8944 -0.4473 0.4473 0.8944 -0.6576 1.5549)" class="st1" width="5.3" height="1.6"/>
			</g>
			<g id="Group_765" transform="translate(39.117 29.537)">
				<circle id="Ellipse_255" class="st1" cx="1.7" cy="1.7" r="1.6"/>
			</g>
			<g id="Group_766" transform="translate(35.891 17.563)">
				<path id="Path_451" class="st1" d="M4.1,14l-4-12.7C0.1,1,0.2,0.8,0.3,0.6c0.1-0.2,0.4-0.3,0.6-0.3h4.8v1.6H2l3.7,11.7L4.1,14z"
					/>
			</g>
			<g id="Group_767" transform="translate(10.378 30.335)">
				<rect id="Rectangle_1376" x="0.3" y="0.2" class="st1" width="13.5" height="1.6"/>
			</g>
			<g id="Group_768" transform="translate(9.62 18.912)">
				
					<rect id="Rectangle_1377" x="-3.2" y="5.6" transform="matrix(0.3164 -0.9486 0.9486 0.3164 -4.0041 7.292)" class="st1" width="12.5" height="1.6"/>
			</g>
			<g id="Group_769" transform="translate(8.781 29.537)">
				<circle id="Ellipse_256" class="st1" cx="1.9" cy="1.7" r="1.6"/>
			</g>
			<g id="Group_770" transform="translate(21.554 39.915)">
				<rect id="Rectangle_1378" x="0.2" y="0.1" class="st1" width="29.3" height="1.6"/>
			</g>
			<g id="Group_771" transform="translate(0 39.915)">
				<rect id="Rectangle_1379" x="0.4" y="0.1" class="st1" width="19.8" height="1.6"/>
			</g>
		</g>
	</g>
</g>
</svg>
