<?xml version="1.0" encoding="utf-8"?>
<!-- Generator: Adobe Illustrator 23.0.2, SVG Export Plug-In . SVG Version: 6.00 Build 0)  -->
<svg version="1.1" id="Layer_1" xmlns="http://www.w3.org/2000/svg" xmlns:xlink="http://www.w3.org/1999/xlink" x="0px" y="0px"
	 viewBox="0 0 88 88" style="enable-background:new 0 0 88 88;" xml:space="preserve">
<style type="text/css">
	.st0{fill:#3A69D3;}
	.st1{fill:#FFFFFF;}
</style>
<g id="Group_2101" transform="translate(-753 -756)">
	<g id="Group_1998" transform="translate(-305 52)">
		<g id="Group_196" transform="translate(-24 -132)">
			<g id="Group_182" transform="translate(63)">
				<g id="Group_120" transform="translate(1019 836)">
					<g id="Group_119">
						<path id="Path_217" class="st0" d="M87.5,44c0,24-19.4,43.5-43.5,43.5C20,87.5,0.5,68.1,0.5,44C0.5,20,19.9,0.5,44,0.5
							c0,0,0,0,0,0C68,0.5,87.5,19.9,87.5,44C87.5,43.9,87.5,43.9,87.5,44z"/>
					</g>
				</g>
			</g>
		</g>
		<g id="Group_616" transform="translate(1069 727)">
			<path id="Path_326" class="st1" d="M54.8,28.4c-0.4-0.3-1.1-0.2-1.4,0.2c0,0,0,0,0,0c-6.5,9.9-18.3,17.6-20.9,19.2
				c-2.6-1.6-14.4-9.1-20.9-19.2c-0.3-0.5-0.9-0.6-1.4-0.3c-0.5,0.3-0.6,0.9-0.3,1.4c7.5,11.6,21.5,19.8,22,20.1
				c0.3,0.1,0.7,0.1,1,0c0.6-0.3,14.5-8.5,22-20.1C55.4,29.4,55.3,28.8,54.8,28.4C54.8,28.5,54.8,28.5,54.8,28.4z"/>
			<path id="Path_327" class="st1" d="M63.6,24.5h-5.7c1.2-2.7,1.8-5.6,1.8-8.5c0-8.6-6.6-15.6-14.7-15.6c-5.2,0.1-9.9,2.8-12.5,7.2
				c-2.6-4.4-7.3-7.2-12.4-7.2c-8.1,0-14.8,7-14.8,15.6c0,2.9,0.6,5.8,1.8,8.5H1.4c-0.5,0-1,0.4-1,1c0,0.5,0.4,1,1,1h18.2
				c0.4,0,0.8-0.3,0.9-0.7l1.9-5.4l3.3,9c0.1,0.4,0.5,0.7,1,0.7c0.4,0,0.8-0.3,0.9-0.7l1.9-6l1.3,3.1c0.2,0.4,0.6,0.6,1,0.6
				c0.4,0,0.8-0.3,0.9-0.7l3.3-9.5l4.9,14.2c0.1,0.4,0.5,0.7,0.9,0.7h0.1c0.4,0,0.7-0.2,0.9-0.6l2.3-5h18.8c0.5,0,1-0.4,1-0.9
				c0,0,0-0.1,0-0.1C64.6,24.8,64.1,24.5,63.6,24.5z M43,25.6l-1.3,2.7l-4.1-12c-0.3-0.8-1-1.3-1.9-1.3l0,0c-0.8,0-1.6,0.5-1.8,1.3
				l-2.4,7.2l-0.4-0.8c-0.3-0.7-1-1.2-1.8-1.2h-0.1c-0.8,0-1.5,0.6-1.8,1.3L26.5,26l-2.2-6.2c-0.3-0.8-1-1.3-1.8-1.3
				c-0.8,0-1.6,0.5-1.8,1.3l-1.8,4.7H9.3c-1.3-2.7-1.9-5.6-2-8.5C7.3,8.4,13,2.3,20.1,2.3c5,0.1,9.5,3.1,11.5,7.7
				c0.1,0.4,0.5,0.6,0.9,0.6l0,0c0.4,0,0.8-0.2,0.9-0.6c2-4.6,6.6-7.6,11.6-7.7c7.1,0,12.7,6.1,12.7,13.6c-0.1,3-0.7,5.9-2,8.5H44.8
				C44.1,24.5,43.4,24.9,43,25.6z"/>
		</g>
	</g>
</g>
</svg>
