<?xml version="1.0" encoding="utf-8"?>
<!-- Generator: Adobe Illustrator 23.0.2, SVG Export Plug-In . SVG Version: 6.00 Build 0)  -->
<svg version="1.1" id="Layer_1" xmlns="http://www.w3.org/2000/svg" xmlns:xlink="http://www.w3.org/1999/xlink" x="0px" y="0px"
	 viewBox="0 0 30 30" style="enable-background:new 0 0 30 30;" xml:space="preserve">
<style type="text/css">
	.st0{fill-rule:evenodd;clip-rule:evenodd;fill:#717171;}
</style>
<path id="Path_3" class="st0" d="M15,3.5c1.9-0.1,3.7,0,5.6,0.2c0.9,0,1.8,0.1,2.6,0.5c1.2,0.5,2.1,1.5,2.6,2.7
	c0.3,0.8,0.5,1.7,0.5,2.6c0,1.4,0.2,1.9,0.2,5.6c0.1,1.9,0,3.7-0.2,5.6c0,0.9-0.1,1.8-0.5,2.6c-0.5,1.2-1.5,2.1-2.6,2.6
	c-0.8,0.3-1.7,0.5-2.6,0.5c-1.4,0-1.9,0.2-5.6,0.2c-1.9,0.1-3.7,0-5.6-0.2c-0.9,0-1.8-0.1-2.7-0.5c-1.2-0.5-2.1-1.5-2.7-2.6
	c-0.3-0.8-0.5-1.7-0.5-2.6c0-1.4-0.2-1.9-0.2-5.6c-0.1-1.9,0-3.7,0.2-5.6c0-0.9,0.1-1.8,0.5-2.7c0.3-0.6,0.6-1.1,1.1-1.6
	c0.4-0.5,0.9-0.9,1.6-1.1c0.8-0.3,1.7-0.5,2.6-0.5C11.3,3.4,13.1,3.4,15,3.5 M15,1c-1.9-0.1-3.8,0-5.8,0.2c-1.2,0-2.3,0.2-3.4,0.6
	C4.9,2.1,4,2.6,3.3,3.3C2.6,4,2.1,4.9,1.8,5.8C1.3,6.9,1,8.1,1.1,9.2C1,11.1,0.9,13.1,1,15c-0.1,1.9,0,3.9,0.2,5.8
	c0,1.2,0.2,2.3,0.6,3.4c0.3,0.9,0.8,1.8,1.6,2.5c0.7,0.7,1.5,1.3,2.5,1.6c1.1,0.4,2.3,0.6,3.4,0.6c1.9,0.2,3.8,0.2,5.8,0.2
	c1.9,0.1,3.9,0,5.8-0.2c1.2,0,2.3-0.2,3.4-0.6c1.9-0.7,3.4-2.2,4.1-4.1c0.4-1.1,0.6-2.3,0.6-3.4c0-1.6,0.2-2,0.2-5.8
	c0.1-1.9,0-3.9-0.2-5.8c0-1.2-0.2-2.3-0.6-3.4c-0.3-0.9-0.8-1.8-1.6-2.5c-0.7-0.7-1.5-1.3-2.5-1.6c-1.1-0.4-2.3-0.6-3.4-0.6
	C18.9,1,16.9,0.9,15,1 M15,7.8c-3.9-0.1-7.1,3-7.2,6.9c0,0.1,0,0.2,0,0.2c0,4,3.2,7.2,7.2,7.2s7.2-3.2,7.2-7.2S19,7.8,15,7.8
	 M15,19.7c-2.5,0-4.6-2-4.7-4.5c0-0.1,0-0.1,0-0.2c0-2.5,2-4.6,4.5-4.7c0.1,0,0.1,0,0.2,0c2.5,0,4.6,2,4.7,4.5c0,0.1,0,0.1,0,0.2
	c0,2.5-2,4.6-4.5,4.7C15.1,19.7,15.1,19.7,15,19.7 M22.5,5.8c-0.9,0-1.7,0.8-1.7,1.7s0.8,1.7,1.7,1.7c0.9,0,1.7-0.8,1.7-1.7l0,0
	C24.2,6.6,23.4,5.8,22.5,5.8"/>
</svg>
