<?xml version="1.0" encoding="utf-8"?>
<!-- Generator: Adobe Illustrator 23.0.2, SVG Export Plug-In . SVG Version: 6.00 Build 0)  -->
<svg version="1.1" id="Layer_1" xmlns="http://www.w3.org/2000/svg" xmlns:xlink="http://www.w3.org/1999/xlink" x="0px" y="0px"
	 viewBox="0 0 88 88" style="enable-background:new 0 0 88 88;" xml:space="preserve">
<style type="text/css">
	.st0{fill:#3A69D3;}
</style>
<g id="Group_2099" transform="translate(-228 -379)">
	<g id="Group_885" transform="translate(-518 -324)">
		<g id="Group_179" transform="translate(-272 -132)">
			<g id="Group_120" transform="translate(1019 836)">
				<g id="Group_119">
					<g id="Path_217">
						<path class="st0" d="M43,86.6c-11.7,0-22.5-4.5-30.7-12.7C4.1,65.7-0.5,54.7-0.5,43S4,20.5,12.2,12.3
							C20.4,4.1,31.3-0.5,43-0.5c0,0,0,0,0.1,0c11.6,0,22.4,4.5,30.6,12.7c8.3,8.2,12.7,19.1,12.8,30.7V43
							c0,11.7-4.5,22.5-12.7,30.8C65.5,82,54.7,86.6,43,86.6L43,86.6z M43,1.5L43,1.5c-11.2,0-21.6,4.4-29.4,12.2S1.4,32,1.4,43
							c0,11.2,4.4,21.6,12.2,29.4S31.9,84.6,43,84.6l0,0c11.1,0,21.6-4.4,29.4-12.2c7.9-7.9,12.1-18.3,12.1-29.4v-0.1
							c0-11.1-4.4-21.6-12.2-29.3S54.1,1.5,43,1.5z"/>
					</g>
				</g>
			</g>
		</g>
		<g id="Group_609" transform="translate(764 718.105)">
			<g id="Path_316">
				<path class="st0" d="M16.2,20.7c0.8,2.8,4.3,8.7,10.1,8.7s9.3-5.9,10.1-8.7c1.7-0.8,2.8-2.3,3.1-4.2c0.4-2.3-0.5-4.6-2-5.3V11
					c0-0.7,0-1.3-0.1-1.9V8.9l0,0c0-0.2-0.4-1.6-0.5-2.1C35.2,1.2,29.3-0.1,26.4,0c-2.9-0.1-8.9,1.2-10.6,6.8
					c-0.2,0.7-0.4,1.5-0.5,2.1l0,0V9c-0.1,0.7-0.1,1.3-0.1,1.9v0.2c-1.6,0.9-2.4,3-2,5.3C13.4,18.4,14.5,19.9,16.2,20.7z M26.3,2.1
					c0.1,0,7-0.2,8.6,5.3c0,0.3,0.1,0.5,0.2,0.8H30c-0.5-1.9-2.5-3.2-4.5-2.7c-1.4,0.3-2.4,1.4-2.7,2.7h-5.3c0-0.3,0.1-0.6,0.1-0.8
					C19.2,1.9,26,2.1,26.3,2.1z M28.7,9.1c0,1.3-1.1,2.3-2.3,2.3c-1.3,0-2.3-1.1-2.3-2.3s1.1-2.3,2.3-2.3l0,0
					C27.7,6.8,28.7,7.9,28.7,9.1z M16.3,12.7c0.5-0.1,0.8-0.5,0.8-1V11c0-0.3,0-0.6,0.1-0.9h5.6c0.5,1.9,2.5,3.2,4.5,2.7
					c1.4-0.3,2.4-1.4,2.7-2.7h5.4c0,0.3,0.1,0.6,0.1,0.9v0.8c0,0.5,0.3,0.9,0.8,1c0.9,0.2,1.6,1.7,1.3,3.4c-0.3,1.7-1.3,2.7-2.1,2.8
					c-0.4,0.1-0.7,0.4-0.8,0.8l-0.1,0.4c-0.5,1.9-3.3,7.4-8.3,7.4s-7.8-5.4-8.3-7.4l-0.1-0.4c-0.1-0.4-0.4-0.7-0.8-0.8
					c-0.8-0.1-1.8-1.2-2.1-2.8C14.7,14.4,15.4,12.9,16.3,12.7z"/>
			</g>
			<g id="Path_317">
				<path class="st0" d="M43.6,33.6l-8.9-2.3c-0.4-0.1-0.8,0.1-1.1,0.4l-6.4,9.9v-8.3c0-0.6-0.4-1-1-1s-1,0.4-1,1v8.3l-6.4-9.9
					c-0.2-0.4-0.7-0.5-1.1-0.4l-8.9,2.3C3.6,35.1,0,39.7,0,45.2v2.5c0,0.5,0.4,1,0.9,1h0.1c0.5,0,1-0.4,1-0.9v-0.1v-2.5
					c0-4.6,3.1-8.5,7.5-9.7l8.3-2.1l7.8,12.1c0,0.1,0,0.1,0.1,0.1l0,0c0.1,0.1,0.2,0.1,0.3,0.2h0.1c0.1,0,0.2,0.1,0.3,0.1
					c0.1,0,0.2,0,0.3-0.1h0.1c0.1,0,0.2-0.1,0.3-0.2l0,0l0.1-0.1l7.8-12.1l8.3,2.1c4.5,1.2,7.5,5.1,7.5,9.7v2.5c0,0.6,0.4,1,1,1
					c0.6,0,1-0.4,1-1v-2.5C52.6,39.7,48.9,34.9,43.6,33.6z"/>
			</g>
		</g>
	</g>
</g>
</svg>
