<?xml version="1.0" encoding="utf-8"?>
<!-- Generator: Adobe Illustrator 23.0.2, SVG Export Plug-In . SVG Version: 6.00 Build 0)  -->
<svg version="1.1" id="Layer_1" xmlns="http://www.w3.org/2000/svg" xmlns:xlink="http://www.w3.org/1999/xlink" x="0px" y="0px"
	 viewBox="0 0 88 88" style="enable-background:new 0 0 88 88;" xml:space="preserve">
<style type="text/css">
	.st0{fill:#3A69D3;}
	.st1{fill:#FFFFFF;}
</style>
<g id="Group_2097" transform="translate(-439 -619)">
	<g id="Group_1470" transform="translate(-308 -85)">
		<g id="Group_179" transform="translate(-272 -132)">
			<g id="Group_120" transform="translate(1019 836)">
				<g id="Group_119">
					<path id="Path_217" class="st0" d="M87.5,44c0,24-19.4,43.5-43.5,43.5S0.5,68.1,0.5,44.1c0-24,19.4-43.5,43.5-43.5c0,0,0,0,0,0
						C68,0.5,87.5,19.9,87.5,44C87.5,44,87.5,44,87.5,44z"/>
				</g>
			</g>
		</g>
		<g id="Group_609" transform="translate(764 718.105)">
			<path id="Path_316" class="st1" d="M17,21.5c0.8,2.9,4.4,8.9,10.3,8.9s9.5-6.1,10.3-8.9c1.7-0.8,2.9-2.4,3.2-4.3
				c0.4-2.4-0.5-4.7-2.1-5.5v-0.2c0-0.7,0-1.3-0.1-2V9.5l0,0c0-0.2-0.4-1.6-0.5-2.2c-1.7-5.8-7.7-7.1-10.7-7c-3-0.1-9.1,1.2-10.8,7
				c-0.2,0.7-0.4,1.4-0.5,2.2l0,0v0.1c-0.1,0.7-0.1,1.3-0.1,2v0.2c-1.6,0.9-2.5,3.1-2.1,5.5C14.1,19.1,15.2,20.7,17,21.5z M27.3,2.4
				c0.1,0,7.2-0.2,8.8,5.5c0,0.3,0.1,0.5,0.2,0.8h-5.3c-0.5-2-2.5-3.3-4.6-2.8c-1.4,0.3-2.4,1.4-2.8,2.8h-5.5c0-0.3,0.1-0.6,0.1-0.8
				C20.1,2.2,27,2.4,27.3,2.4z M29.8,9.7c0,1.3-1.1,2.4-2.4,2.4c-1.3,0-2.4-1.1-2.4-2.4s1.1-2.4,2.4-2.4l0,0
				C28.7,7.3,29.8,8.4,29.8,9.7z M17.1,13.4c0.5-0.1,0.8-0.5,0.8-1v-0.8c0-0.3,0-0.6,0.1-0.9h5.8c0.5,2,2.5,3.3,4.6,2.8
				c1.4-0.3,2.4-1.4,2.8-2.8h5.6c0,0.3,0.1,0.6,0.1,0.9v0.8c0,0.5,0.3,0.9,0.8,1c0.9,0.2,1.6,1.7,1.3,3.5c-0.3,1.7-1.3,2.8-2.2,2.9
				c-0.4,0.1-0.7,0.4-0.8,0.8l-0.1,0.4c-0.5,2-3.4,7.5-8.4,7.5s-7.9-5.6-8.4-7.5l-0.1-0.4c-0.1-0.4-0.4-0.7-0.8-0.8
				c-0.8-0.1-1.9-1.2-2.2-2.9C15.5,15,16.2,13.6,17.1,13.4z"/>
			<path id="Path_317" class="st1" d="M45,34.7l-9.1-2.4c-0.4-0.1-0.8,0.1-1.1,0.4l-6.6,10.1v-8.4c0-0.5-0.4-1-1-1c-0.5,0-1,0.4-1,1
				v8.4l-6.6-10.1c-0.2-0.4-0.7-0.5-1.1-0.4l-9.1,2.4c-5.3,1.4-9,6.3-9,11.8v2.6c0,0.5,0.4,1,0.9,1c0,0,0.1,0,0.1,0
				c0.5,0,1-0.4,1-0.9c0,0,0-0.1,0-0.1v-2.6c0-4.7,3.1-8.7,7.6-9.9l8.4-2.2l7.9,12.4c0,0.1,0,0.1,0.1,0.1l0,0
				c0.1,0.1,0.2,0.1,0.3,0.2h0.1c0.1,0,0.2,0.1,0.3,0.1c0.1,0,0.2,0,0.3-0.1h0.1c0.1,0,0.2-0.1,0.3-0.2l0,0l0.1-0.1l7.9-12.4
				l8.4,2.2c4.5,1.2,7.7,5.3,7.6,9.9v2.6c0,0.5,0.4,1,1,1c0.5,0,1-0.4,1-1v-2.6C54.2,40.9,50.4,36,45,34.7z"/>
		</g>
	</g>
</g>
</svg>
