<svg xmlns="http://www.w3.org/2000/svg" width="20.644" height="20.643" viewBox="0 0 20.644 20.643">
  <g id="Symbol_378" data-name="Symbol 378" transform="translate(-1116.031 -352.946) rotate(3)">
    <path id="Path_2" data-name="Path 2" d="M2.455,8.593A6.079,6.079,0,0,1,8.593,2.455a6.079,6.079,0,0,1,6.138,6.138,6.079,6.079,0,0,1-6.138,6.138A6.079,6.079,0,0,1,2.455,8.593Zm15.1,10.68a1.215,1.215,0,0,0,1.719-1.719l-3.806-3.806a8.4,8.4,0,0,0,1.719-5.156A8.541,8.541,0,0,0,8.593,0,8.541,8.541,0,0,0,0,8.593a8.541,8.541,0,0,0,8.593,8.593,8.4,8.4,0,0,0,5.156-1.719Z" transform="translate(1134 294)" fill="#414141"/>
  </g>
</svg>
